# xmcd
#
# Track frame offsets: 
#        150
#        25327
#        47620
#        70890
#        94240
#        115832
#        133597
#        158250
#        179387
#
# Disc length: 2711 seconds
#
# Revision: 4
# Processed by: cddbd v1.5.2PL0 Copyright (c) Steve Scherf et al.
# Submitted via: ExactAudioCopy v1.0b3
#
DISCID=6e0a9509
DTITLE=崔健 - 一無所有
DYEAR=1993
DGENRE=Rock
TTITLE0=一無所有
TTITLE1=假行僧
TTITLE2=從頭再來
TTITLE3=不是我不明白
TTITLE4=花房姑娘
TTITLE5=讓我睡個好覺
TTITLE6=出走
TTITLE7=新長徵路上的搖滾
TTITLE8=不再掩飾
EXTD=YEAR: 1993
EXTT0=
EXTT1=
EXTT2=
EXTT3=
EXTT4=
EXTT5=
EXTT6=
EXTT7=
EXTT8=
PLAYORDER=
